<svg xmlns="http://www.w3.org/2000/svg" xmlns:xlink="http://www.w3.org/1999/xlink" version="1.1" width="256" height="256" viewBox="0 0 256 256" xml:space="preserve">

<defs>
</defs>
<g style="stroke: none; stroke-width: 0; stroke-dasharray: none; stroke-linecap: butt; stroke-linejoin: miter; stroke-miterlimit: 10; fill: none; fill-rule: nonzero; opacity: 1;" transform="translate(1.4065934065934016 1.4065934065934016) scale(2.81 2.81)" >
	<path d="M 35.69 90 c -0.112 0 -0.225 -0.019 -0.335 -0.058 c -0.435 -0.154 -0.707 -0.587 -0.66 -1.046 l 3.829 -36.944 l -19.177 3.695 c -0.395 0.073 -0.796 -0.092 -1.02 -0.426 c -0.224 -0.333 -0.226 -0.769 -0.006 -1.104 L 53.474 0.452 c 0.254 -0.387 0.737 -0.548 1.172 -0.395 c 0.435 0.155 0.707 0.586 0.66 1.045 l -3.829 36.944 l 19.176 -3.695 c 0.396 -0.078 0.796 0.091 1.021 0.425 c 0.224 0.333 0.226 0.769 0.006 1.104 L 36.526 89.548 C 36.337 89.836 36.02 90 35.69 90 z M 39.657 49.716 c 0.248 0 0.49 0.092 0.676 0.263 c 0.233 0.214 0.352 0.525 0.319 0.841 l -3.543 34.189 L 68.71 36.764 l -18.178 3.502 c -0.315 0.062 -0.632 -0.031 -0.865 -0.245 c -0.233 -0.214 -0.352 -0.525 -0.319 -0.84 l 3.544 -34.19 L 21.29 53.236 l 18.179 -3.503 C 39.531 49.722 39.594 49.716 39.657 49.716 z" style="stroke: none; stroke-width: 1; stroke-dasharray: none; stroke-linecap: butt; stroke-linejoin: miter; stroke-miterlimit: 10; fill: rgb(0,0,0); fill-rule: nonzero; opacity: 1;" transform=" matrix(1 0 0 1 0 0) " stroke-linecap="round" />
	<path d="M 48.362 82.264 c -0.512 0 -0.947 -0.39 -0.995 -0.909 c -0.05 -0.55 0.354 -1.036 0.905 -1.087 C 66.598 78.59 80.417 63.428 80.417 45 c 0 -13.656 -7.63 -25.861 -19.912 -31.851 c -0.496 -0.242 -0.702 -0.841 -0.46 -1.337 c 0.242 -0.496 0.839 -0.702 1.337 -0.46 C 74.356 17.679 82.417 30.573 82.417 45 c 0 19.469 -14.601 35.486 -33.963 37.26 C 48.424 82.263 48.393 82.264 48.362 82.264 z" style="stroke: none; stroke-width: 1; stroke-dasharray: none; stroke-linecap: butt; stroke-linejoin: miter; stroke-miterlimit: 10; fill: rgb(0,0,0); fill-rule: nonzero; opacity: 1;" transform=" matrix(1 0 0 1 0 0) " stroke-linecap="round" />
	<path d="M 29.057 78.751 c -0.147 0 -0.296 -0.032 -0.438 -0.102 C 15.644 72.321 7.583 59.428 7.583 45 c 0 -19.276 14.441 -35.279 33.592 -37.224 c 0.555 -0.052 1.04 0.345 1.096 0.894 c 0.056 0.549 -0.345 1.04 -0.894 1.096 C 23.252 11.607 9.583 26.754 9.583 45 c 0 13.657 7.63 25.862 19.913 31.853 c 0.496 0.242 0.703 0.841 0.46 1.337 C 29.784 78.545 29.428 78.751 29.057 78.751 z" style="stroke: none; stroke-width: 1; stroke-dasharray: none; stroke-linecap: butt; stroke-linejoin: miter; stroke-miterlimit: 10; fill: rgb(0,0,0); fill-rule: nonzero; opacity: 1;" transform=" matrix(1 0 0 1 0 0) " stroke-linecap="round" />
</g>
</svg>